<svg xmlns="http://www.w3.org/2000/svg" xmlns:xlink="http://www.w3.org/1999/xlink" width="197" height="27.583" viewBox="0 0 197 27.583">
  <defs>
    <linearGradient id="linear-gradient" x1="0.053" y1="0.5" x2="0.959" y2="0.5" gradientUnits="objectBoundingBox">
      <stop offset="0" stop-color="#bbf0de"/>
      <stop offset="1" stop-color="#0180be"/>
    </linearGradient>
  </defs>
  <g id="그룹_157" data-name="그룹 157" transform="translate(-32.83 -59.537)">
    <g id="The_SpiroKit" data-name="The SpiroKit" transform="translate(68.056 59.537)" style="mix-blend-mode: normal;isolation: isolate">
      <g id="그룹_151" data-name="그룹 151" transform="translate(0 0)" style="mix-blend-mode: normal;isolation: isolate">
        <path id="패스_524" data-name="패스 524" d="M1159.81,944.313a2.167,2.167,0,0,1-1.465.553,2.083,2.083,0,0,1-1.478-.553,1.976,1.976,0,0,1-.595-1.52V927.4h-3.759a1.891,1.891,0,0,1-1.382-.484,1.68,1.68,0,0,1-.5-1.257,1.763,1.763,0,0,1,.5-1.3,1.867,1.867,0,0,1,1.382-.5H1164.4a1.868,1.868,0,0,1,1.382.5,1.756,1.756,0,0,1,.5,1.3,1.674,1.674,0,0,1-.5,1.257,1.893,1.893,0,0,1-1.382.484h-3.952v15.394A1.909,1.909,0,0,1,1159.81,944.313Z" transform="translate(-1150.634 -923.032)" fill="#5dbcce"/>
        <path id="패스_525" data-name="패스 525" d="M1164.262,931.481a4.7,4.7,0,0,1,.98-.884,5.424,5.424,0,0,1,2.17-.857,5.923,5.923,0,0,1,.912-.083,6.973,6.973,0,0,1,2.543.429,5.5,5.5,0,0,1,1.879,1.187,5.015,5.015,0,0,1,1.174,1.8,6.069,6.069,0,0,1,.4,2.224v7.877a1.909,1.909,0,0,1-.636,1.52,2.167,2.167,0,0,1-1.465.553,1.994,1.994,0,0,1-1.452-.553,2.025,2.025,0,0,1-.566-1.52v-7.9a2.481,2.481,0,0,0-.553-1.686,2.012,2.012,0,0,0-1.6-.636,3,3,0,0,0-1.133.234,4.719,4.719,0,0,0-1.09.623,5.532,5.532,0,0,0-.927.884,4.063,4.063,0,0,0-.636,1.022v7.462a1.91,1.91,0,0,1-.635,1.52,2.168,2.168,0,0,1-1.465.553,1.994,1.994,0,0,1-1.452-.553,2.025,2.025,0,0,1-.566-1.52V925.511a2.074,2.074,0,0,1,.566-1.535,1.966,1.966,0,0,1,1.452-.566,2.136,2.136,0,0,1,1.465.566,1.953,1.953,0,0,1,.635,1.535Z" transform="translate(-1142.622 -923.411)" fill="#5dbcce"/>
        <path id="패스_526" data-name="패스 526" d="M1173.187,936.266a3.282,3.282,0,0,0,1.189,2.432,4.091,4.091,0,0,0,2.46.719,7.8,7.8,0,0,0,3.206-.829c.129-.055.3-.123.512-.206a2.042,2.042,0,0,1,.676-.14,1.435,1.435,0,0,1,.706.166,1.345,1.345,0,0,1,.566.706,1.625,1.625,0,0,1,.138.939,1.527,1.527,0,0,1-.332.706,2.578,2.578,0,0,1-.553.483q-.3.193-.5.3a9.125,9.125,0,0,1-2.281.9,10.406,10.406,0,0,1-2.362.262,9.164,9.164,0,0,1-2.917-.457,6.435,6.435,0,0,1-4.033-3.812,9.142,9.142,0,0,1-.6-3.47,10.525,10.525,0,0,1,.483-3.261,7.559,7.559,0,0,1,1.411-2.585,6.566,6.566,0,0,1,2.251-1.712,7.019,7.019,0,0,1,3.013-.623,7.35,7.35,0,0,1,2.875.512,5.885,5.885,0,0,1,2.045,1.395,6.351,6.351,0,0,1,1.3,2.128,11.188,11.188,0,0,1,.635,2.681,4.068,4.068,0,0,1-.015,1.216,1.7,1.7,0,0,1-.415.872,1.893,1.893,0,0,1-.883.51,5.409,5.409,0,0,1-1.479.166Zm3.04-6.191a2.7,2.7,0,0,0-2.155.94,3.1,3.1,0,0,0-.553.912,5,5,0,0,0-.276,1h5.776a4.605,4.605,0,0,0-.289-.967,3.852,3.852,0,0,0-.54-.912,2.835,2.835,0,0,0-.816-.691A2.292,2.292,0,0,0,1176.227,930.075Z" transform="translate(-1135.102 -920.567)" fill="#5dbcce"/>
        <path id="패스_527" data-name="패스 527" d="M1181.906,941.266a1.425,1.425,0,0,1,.706-.731,1.778,1.778,0,0,1,.868-.14,2.618,2.618,0,0,1,.818.208c.247.111.437.2.564.276a8.649,8.649,0,0,0,1.66.691,5.7,5.7,0,0,0,1.575.221,3.9,3.9,0,0,0,2.42-.706,2.366,2.366,0,0,0,.925-2,2.08,2.08,0,0,0-.94-1.811,12.864,12.864,0,0,0-2.572-1.284,20.093,20.093,0,0,1-2.43-1.146,9.4,9.4,0,0,1-1.922-1.411,5.659,5.659,0,0,1-1.259-1.782,5.455,5.455,0,0,1-.441-2.239,5.315,5.315,0,0,1,.539-2.46,4.973,4.973,0,0,1,1.494-1.756,6.771,6.771,0,0,1,2.292-1.063,11.461,11.461,0,0,1,2.972-.359,8.491,8.491,0,0,1,2.377.345,12.767,12.767,0,0,1,2.266.9,2.633,2.633,0,0,1,.5.345,2.37,2.37,0,0,1,.483.568,1.584,1.584,0,0,1,.236.746,1.559,1.559,0,0,1-.249.884,1.7,1.7,0,0,1-.746.732,1.65,1.65,0,0,1-.844.138,2.609,2.609,0,0,1-.787-.192,5.612,5.612,0,0,1-.553-.263,5.9,5.9,0,0,0-2.736-.774,3.708,3.708,0,0,0-2.351.608,1.942,1.942,0,0,0-.745,1.575,2.1,2.1,0,0,0,.275,1.078,2.92,2.92,0,0,0,.8.857,7.239,7.239,0,0,0,1.229.719q.7.331,1.588.663a16.5,16.5,0,0,1,2.351,1.105,8.084,8.084,0,0,1,1.795,1.382,5.5,5.5,0,0,1,1.148,1.754,5.853,5.853,0,0,1,.4,2.226,6.014,6.014,0,0,1-.47,2.377,5.363,5.363,0,0,1-1.407,1.935,6.867,6.867,0,0,1-2.351,1.312,10.026,10.026,0,0,1-3.26.485,10.5,10.5,0,0,1-2.53-.3,11.5,11.5,0,0,1-2.473-.94,2.823,2.823,0,0,1-.567-.359,2.509,2.509,0,0,1-.553-.608,2.012,2.012,0,0,1-.3-.8A1.654,1.654,0,0,1,1181.906,941.266Z" transform="translate(-1124.474 -923.108)" fill="#5dbcce"/>
        <path id="패스_528" data-name="패스 528" d="M1198.361,942.688a7.315,7.315,0,0,1-1.852-.263,4.283,4.283,0,0,1-1.795-.98v4.726a1.852,1.852,0,0,1-.623,1.492,2.146,2.146,0,0,1-1.424.525,2.1,2.1,0,0,1-1.465-.525,1.916,1.916,0,0,1-.58-1.492V929.118a2.042,2.042,0,0,1,.54-1.507,1.953,1.953,0,0,1,3.3.982,4.894,4.894,0,0,1,2-1.437,5.905,5.905,0,0,1,2.03-.415,7.756,7.756,0,0,1,2.655.47,6.467,6.467,0,0,1,2.322,1.465,7.316,7.316,0,0,1,1.643,2.53,9.636,9.636,0,0,1,.621,3.633,8.769,8.769,0,0,1-.578,3.276,7.244,7.244,0,0,1-1.59,2.46,7.145,7.145,0,0,1-2.349,1.561A7.431,7.431,0,0,1,1198.361,942.688Zm-3.563-7.047a4.37,4.37,0,0,0,.206,1.339,3.831,3.831,0,0,0,.593,1.161,2.931,2.931,0,0,0,.94.816,2.544,2.544,0,0,0,1.245.3,3.664,3.664,0,0,0,1.644-.346,3.358,3.358,0,0,0,1.174-.94,3.851,3.851,0,0,0,.691-1.423,6.946,6.946,0,0,0,.221-1.8,5.512,5.512,0,0,0-.912-3.372,3.054,3.054,0,0,0-2.6-1.216,3.11,3.11,0,0,0-1.3.263,3.234,3.234,0,0,0-1.01.7,3.107,3.107,0,0,0-.664,1.037,3.463,3.463,0,0,0-.234,1.284Z" transform="translate(-1116.942 -920.605)" fill="#5dbcce"/>
        <path id="패스_529" data-name="패스 529" d="M1199.908,926.217a2.546,2.546,0,0,1,.208-1.01,2.648,2.648,0,0,1,.566-.842,2.708,2.708,0,0,1,.829-.566,2.62,2.62,0,0,1,2.047,0,2.7,2.7,0,0,1,.827.566,2.51,2.51,0,0,1,.555.842,2.743,2.743,0,0,1,.192,1.01,2.55,2.55,0,0,1-2.6,2.6,2.664,2.664,0,0,1-1.023-.194,2.52,2.52,0,0,1-.829-.553,2.7,2.7,0,0,1-.566-.829A2.5,2.5,0,0,1,1199.908,926.217Zm4.645,16.859a1.851,1.851,0,0,1-.623,1.492,2.145,2.145,0,0,1-1.424.525,2.1,2.1,0,0,1-1.465-.525,1.911,1.911,0,0,1-.58-1.492V931.827a1.953,1.953,0,0,1,.58-1.505,2.062,2.062,0,0,1,1.465-.54,2.105,2.105,0,0,1,1.424.54,1.891,1.891,0,0,1,.623,1.505Z" transform="translate(-1109.12 -923.259)" fill="#5dbcce"/>
        <path id="패스_530" data-name="패스 530" d="M1206.365,942.4a2.1,2.1,0,0,1-1.467-.525,1.909,1.909,0,0,1-.58-1.492V929.108a1.9,1.9,0,0,1,.568-1.465,2.131,2.131,0,0,1,2.543-.193,1.848,1.848,0,0,1,.731.912,3.045,3.045,0,0,1,.816-.829,4.383,4.383,0,0,1,.912-.47,4.17,4.17,0,0,1,.87-.221,5.269,5.269,0,0,1,.663-.055c.2,0,.4.011.58.028s.369.046.553.083a2.136,2.136,0,0,1,.457.151,1.941,1.941,0,0,1,.565.387,1.87,1.87,0,0,1,.442.706,2.129,2.129,0,0,1,.055,1.105,1.514,1.514,0,0,1-.289.691,1.239,1.239,0,0,1-.47.36,1.491,1.491,0,0,1-.581.11,3.03,3.03,0,0,1-.595-.055,3.965,3.965,0,0,0-.772-.083,2.038,2.038,0,0,0-1.067.289,3.322,3.322,0,0,0-.855.748,4.652,4.652,0,0,0-.636,1.035,6.313,6.313,0,0,0-.4,1.161v6.882a1.844,1.844,0,0,1-.621,1.492A2.145,2.145,0,0,1,1206.365,942.4Z" transform="translate(-1105.404 -920.567)" fill="#5dbcce"/>
        <path id="패스_531" data-name="패스 531" d="M1217.826,942.733a8.784,8.784,0,0,1-2.97-.5,6.729,6.729,0,0,1-2.432-1.492,6.986,6.986,0,0,1-1.631-2.46,9.084,9.084,0,0,1-.595-3.427,9.875,9.875,0,0,1,.583-3.538,6.99,6.99,0,0,1,1.6-2.528,6.454,6.454,0,0,1,2.417-1.507,9.449,9.449,0,0,1,6.051,0,6.488,6.488,0,0,1,2.419,1.507,7,7,0,0,1,1.6,2.528,9.875,9.875,0,0,1,.583,3.538,8.887,8.887,0,0,1-.61,3.427,7.138,7.138,0,0,1-1.643,2.46,6.755,6.755,0,0,1-2.419,1.492A8.668,8.668,0,0,1,1217.826,942.733Zm0-12.686a3.13,3.13,0,0,0-1.548.372,3.2,3.2,0,0,0-1.091,1.01,4.558,4.558,0,0,0-.636,1.52,8.232,8.232,0,0,0-.208,1.907,5.175,5.175,0,0,0,.995,3.467,3.268,3.268,0,0,0,4.975,0,5.175,5.175,0,0,0,1-3.467,8.45,8.45,0,0,0-.208-1.907,4.561,4.561,0,0,0-.636-1.52,3.214,3.214,0,0,0-1.091-1.01A3.138,3.138,0,0,0,1217.826,930.047Z" transform="translate(-1100.45 -920.567)" fill="#5dbcce"/>
        <path id="패스_532" data-name="패스 532" d="M1233.958,941.336a3.844,3.844,0,0,1,.745,1.7,1.522,1.522,0,0,1-.523,1.4,1.929,1.929,0,0,1-.678.387,2.057,2.057,0,0,1-.857.1,2.384,2.384,0,0,1-.925-.3,2.685,2.685,0,0,1-.859-.816l-5.692-7.988-1.05,1.161V942.8a1.909,1.909,0,0,1-.636,1.52,2.17,2.17,0,0,1-1.465.553,2.134,2.134,0,0,1-1.492-.553,1.945,1.945,0,0,1-.608-1.52V925.969a1.994,1.994,0,0,1,.608-1.535,2.1,2.1,0,0,1,1.492-.566,2.138,2.138,0,0,1,1.465.566,1.956,1.956,0,0,1,.636,1.535V931.5l6.163-6.633a3.524,3.524,0,0,1,.882-.706,2.618,2.618,0,0,1,.859-.289,1.638,1.638,0,0,1,.774.07,1.8,1.8,0,0,1,.608.345,1.52,1.52,0,0,1,.512,1.369,2.8,2.8,0,0,1-.788,1.561l-5.251,5.638Z" transform="translate(-1092.261 -923.04)" fill="#5dbcce"/>
        <path id="패스_533" data-name="패스 533" d="M1229.083,926.217a2.583,2.583,0,0,1,.206-1.01,2.681,2.681,0,0,1,1.4-1.408,2.615,2.615,0,0,1,2.045,0,2.7,2.7,0,0,1,.829.566,2.48,2.48,0,0,1,.553.842,2.705,2.705,0,0,1,.193,1.01,2.55,2.55,0,0,1-2.6,2.6,2.661,2.661,0,0,1-1.023-.194,2.52,2.52,0,0,1-.829-.553,2.737,2.737,0,0,1-.568-.829A2.539,2.539,0,0,1,1229.083,926.217Zm4.645,16.859a1.851,1.851,0,0,1-.623,1.492,2.145,2.145,0,0,1-1.424.525,2.1,2.1,0,0,1-1.465-.525,1.908,1.908,0,0,1-.58-1.492V931.827a1.951,1.951,0,0,1,.58-1.505,2.061,2.061,0,0,1,1.465-.54,2.1,2.1,0,0,1,1.424.54,1.892,1.892,0,0,1,.623,1.505Z" transform="translate(-1084.539 -923.259)" fill="#5dbcce"/>
        <path id="패스_534" data-name="패스 534" d="M1239.434,932.012v7.352a3.566,3.566,0,0,0,.166,1.161c.112.315.417.47.912.47h.346a2.671,2.671,0,0,0,.374-.027c.11,0,.263,0,.455-.015a1.612,1.612,0,0,1,.608.1,1.3,1.3,0,0,1,.567.4,1.549,1.549,0,0,1,.3.87,1.409,1.409,0,0,1-.636,1.437,2.478,2.478,0,0,1-.638.291,3.481,3.481,0,0,1-.579.123c-.334.055-.656.1-.969.138a3.841,3.841,0,0,1-.772.028,4.649,4.649,0,0,1-2.06-.455,3.741,3.741,0,0,1-1.314-1.12,4.275,4.275,0,0,1-.691-1.575,8.506,8.506,0,0,1-.192-1.824v-7.352h-.776a1.743,1.743,0,0,1-1.269-.457,1.754,1.754,0,0,1,0-2.39,1.713,1.713,0,0,1,1.269-.47h.8v-1.769a1.959,1.959,0,0,1,.578-1.507,2.077,2.077,0,0,1,1.467-.538,2.112,2.112,0,0,1,1.422.538,1.89,1.89,0,0,1,.621,1.507v1.769h1.852a1.707,1.707,0,0,1,1.286.47,1.79,1.79,0,0,1,0,2.39,1.737,1.737,0,0,1-1.286.457Z" transform="translate(-1081.405 -922.173)" fill="#5dbcce"/>
      </g>
    </g>
    <g id="그룹_66" data-name="그룹 66" transform="translate(32.83 59.537)">
      <path id="패스_2" data-name="패스 2" d="M923.639,1307.982c-3.208,0-5.817-3.034-5.817-6.764l-.022-14.051c0-2.182-1.348-3.956-3.006-3.956s-3.006,1.774-3.006,3.954c0,0,0,.009,0,.014l-.022,2.241c0,3.727-2.612,6.758-5.817,6.758h-.99a1.406,1.406,0,1,1,0-2.811h.99c1.657,0,3.006-1.773,3.006-3.953,0,0,0-.009,0-.014l.022-2.242c0-3.727,2.612-6.757,5.817-6.757s5.817,3.035,5.817,6.765l.022,14.051c0,2.182,1.349,3.955,3.006,3.955s3.006-1.773,3.006-3.953v-.009l.015-2.347c0-3.728,2.611-6.76,5.817-6.76h.761a1.406,1.406,0,1,1,0,2.811h-.761c-1.657,0-3.006,1.773-3.006,3.953v.009l-.015,2.347C929.454,1304.95,926.846,1307.982,923.639,1307.982Z" transform="translate(-903.553 -1280.4)" fill="url(#linear-gradient)"/>
    </g>
  </g>
</svg>
